<?xml version="1.0" encoding="utf-8"?>
<svg width="1080px" height="1080px" viewBox="0 0 1080 1080" version="1.1" xmlns:xlink="http://www.w3.org/1999/xlink" xmlns="http://www.w3.org/2000/svg">
  <style>
    @media (prefers-color-scheme: dark) {
      .second-path { fill: #ddd }
    }
  </style>
  <defs>
    <rect width="1080" height="1080" id="artboard_1" />
    <clipPath id="clip_1">
      <use xlink:href="#artboard_1" clip-rule="evenodd" />
    </clipPath>
  </defs>
  <g id="Artboard" clip-path="url(#clip_1)">
    <path fill="#FC4850" class="first-path" d="M601.346 25.656C571.261 25.6561 542.283 31.5638 514.41 43.3792C486.537 55.1947 465.52 70.404 451.357 89.0071C439.41 105.599 422.598 144.062 400.919 204.397C379.241 264.731 355.592 338.264 329.973 424.994C304.353 511.725 279.286 603.987 254.771 701.779C230.256 799.571 207.618 895.98 186.858 991.007C185.975 996.035 185.533 1003.07 185.533 1012.12C185.533 1026.7 133.298 1064.37 141.256 1074.67C149.214 1084.98 211.528 1071.43 226.104 1067.53C241.888 1063.31 275.452 1049.04 300.206 1035.47C324.959 1021.89 336.271 1014.13 356.61 994.023C378.268 973.409 397.496 946.636 414.295 913.703C431.094 880.771 449.439 833.886 469.329 773.049C486.128 725.284 498.507 692.226 506.464 673.874C514.422 655.522 527.463 631.514 545.587 601.85L548.237 601.85C548.237 621.458 549.103 639.307 550.836 655.396C558.635 749.418 575.668 829.424 601.936 895.414C624.698 953.848 654.722 1012.24 697.641 1044.55C740.559 1076.87 791.824 1080 845.803 1080C875.446 1080 904.758 1073.46 933.738 1060.39C962.719 1047.32 987.385 1028.72 1007.74 1004.58C1023.23 989.498 1030.97 975.672 1030.97 963.102C1030.97 956.566 1023.68 949.275 1009.11 941.231C961.842 918.103 914.358 869.835 866.653 796.428C847.659 766.261 830.001 733.073 813.679 696.865C799.116 664.678 787.864 637.143 779.924 614.258C771.983 591.374 764.8 564.975 758.375 535.063C751.949 505.152 746.079 471.593 740.765 434.386C773.452 403.716 818.506 368.274 875.929 328.059C952.345 275.266 1004.03 233.539 1030.97 202.877C1045.99 185.782 1057.91 166.676 1066.75 145.559C1075.58 124.442 1080 103.329 1080 82.2195C1080 54.5662 1063.68 40.7396 1031.03 40.7396C987.799 40.7396 939.932 60.8903 887.431 101.192C857.436 123.354 832.291 144.259 811.996 163.907C791.702 183.555 763.027 213.777 725.971 254.573L591.532 420.057L578.281 441.964L575.63 438.193C578.722 427.618 583.912 411.125 591.201 388.711C598.489 366.298 603.679 349.8 606.771 339.218C653.592 192.153 677.003 105.521 677.003 79.3206C677.003 60.1754 671.252 46.445 659.75 38.1294C648.249 29.8139 628.781 25.6561 601.346 25.656L601.346 25.656Z" id="s-Path_1-d1224" fill-rule="evenodd" stroke="none" />
    <path fill="#333" class="second-path" d="M346.831 1.97444C298.568 1.97451 259.116 3.93081 228.476 7.84335C197.835 11.756 171.604 17.8309 149.782 26.0679C126.695 34.7168 104.974 54.0739 84.6195 84.1391C64.2647 114.204 54.0873 141.387 54.0873 165.686C54.0873 180.513 61.1103 192.148 75.1562 200.591C89.2021 209.034 107.546 213.255 130.187 213.255C153.667 213.255 201.465 202.753 273.581 181.748C290.352 176.806 300.625 173.82 304.398 172.791C308.172 171.761 313.518 170.319 320.436 168.466C327.354 166.613 334.796 164.656 342.763 162.597L342.763 162.597C331.442 267.208 319.912 353.594 308.172 421.756C296.432 489.917 277.984 576.098 252.827 680.297C237.313 743.722 217.607 812.913 193.708 887.87C184.484 914.229 172.325 939.97 157.231 965.093C150.522 942.441 147.168 915.877 147.168 885.399C147.168 829.387 154.505 762.255 169.18 684.003C172.534 667.117 174.211 655.379 174.211 648.79C174.211 634.787 172.22 624.079 168.237 616.665C164.253 609.252 158.908 605.545 152.199 605.545C144.652 605.545 133.436 610.076 118.552 619.136C103.667 628.197 89.5166 638.905 76.0996 651.261C52.6198 675.56 34.0666 705.934 20.44 742.383C6.81332 778.832 0 816.414 0 855.128C0 907.845 16.2553 958.503 48.766 1007.1C81.2767 1055.7 114.52 1080 148.494 1080C172.407 1080 195.374 1074.34 217.396 1063.01C239.418 1051.69 260.706 1034.7 281.261 1012.05C301.815 989.4 321.111 961.811 339.146 929.281C420.526 783.504 492.747 600.259 555.81 379.544C571.782 326.016 587.42 265.054 602.724 196.657C618.027 128.261 625.679 85.4101 625.679 68.1058C625.679 45.441 670.781 36.7792 625.679 26.0679C580.577 15.3565 442.525 1.97451 346.831 1.97444L346.831 1.97444Z" id="s-Path_2-d1224" fill-rule="evenodd" stroke="none" />
  </g>
</svg>
