<?xml version="1.0" standalone="no"?>
<!DOCTYPE svg PUBLIC "-//W3C//DTD SVG 20010904//EN"
 "http://www.w3.org/TR/2001/REC-SVG-20010904/DTD/svg10.dtd">
<svg version="1.0" xmlns="http://www.w3.org/2000/svg"
 width="700.000000pt" height="700.000000pt" viewBox="0 0 700.000000 700.000000"
 preserveAspectRatio="xMidYMid meet">
<metadata>
Created by potrace 1.14, written by Peter Selinger 2001-2017
</metadata>
<g transform="translate(0.000000,700.000000) scale(0.100000,-0.100000)"
fill="#000000" stroke="none">
<path d="M1127 6124 c-1 -1 -22 -4 -48 -7 -231 -28 -435 -224 -486 -467 -4
-19 -7 -989 -7 -2155 -1 -2041 0 -2122 18 -2185 63 -222 233 -380 457 -426 46
-10 4791 -12 4852 -2 203 31 378 164 455 345 50 118 48 34 47 2293 -1 2021 -2
2118 -19 2175 -22 71 -59 146 -95 195 -80 106 -216 195 -342 221 -39 9 -693
12 -2442 13 -1314 1 -2389 0 -2390 0z m558 -1156 c209 -313 381 -575 383 -582
2 -8 -113 -11 -448 -11 -443 0 -450 0 -451 20 0 11 -1 272 -2 580 l-1 560 45
5 c92 10 61 48 474 -572z m1079 570 c37 -51 766 -1152 766 -1157 0 -3 -169 -6
-375 -6 l-375 0 -385 578 c-212 318 -385 580 -385 582 0 9 748 12 754 3z
m1838 -573 c213 -318 386 -581 384 -584 -3 -3 -171 -6 -375 -6 l-371 0 -388
582 -388 582 75 3 c42 2 211 3 376 2 l300 -1 387 -578z m1227 567 c5 -8 7
-1096 2 -1148 -1 -6 -28 -10 -67 -10 l-66 0 -306 461 c-169 253 -310 462 -314
463 -5 2 -8 8 -8 13 0 5 -34 58 -75 118 l-74 110 67 3 c165 7 835 -1 841 -10z
m6 -2907 l0 -1165 -75 0 c-99 -1 -4377 -1 -4500 0 l-95 0 1 1163 1 1162 1024
5 c563 3 1614 4 2334 2 l1310 -2 0 -1165z"/>
</g>
</svg>
