<?xml version="1.0" encoding="utf-8"?>
<svg width="512px" height="512px" viewBox="0 0 512 512" version="1.1" xmlns:xlink="http://www.w3.org/1999/xlink" xmlns="http://www.w3.org/2000/svg">
  <defs>
    <rect width="512" height="512" id="artboard_1" />
    <clipPath id="clip_1">
      <use xlink:href="#artboard_1" clip-rule="evenodd" />
    </clipPath>
    <clipPath id="mask_1">
      <use xlink:href="#path_1" />
    </clipPath>
  </defs>
  <g id="Artboard" clip-path="url(#clip_1)">
    <g id="svg-2" transform="translate(79.92001 21.92006)">
      <path 
        d="M206.118 0C192.665 3.62397e-05 179.705 2.6896 167.241 8.06868C154.776 13.4478 145.378 20.372 139.044 28.8412C133.702 36.3949 126.183 53.9056 116.489 81.3735C106.794 108.841 96.2186 142.318 84.7618 181.803C73.305 221.288 62.0952 263.291 51.1322 307.811C40.1692 352.332 30.0458 396.224 20.7618 439.485C20.3668 441.774 20.1692 444.979 20.1692 449.099C20.1692 455.737 -3.18973 472.883 0.368919 477.575C3.92756 482.267 31.7941 476.097 38.3126 474.324C45.3709 472.404 60.3807 465.906 71.4501 459.726C82.5196 453.545 87.5782 450.015 96.6739 440.859C106.359 431.474 114.958 419.285 122.47 404.292C129.982 389.299 138.186 367.955 147.081 340.258C154.594 318.512 160.129 303.462 163.688 295.108C167.246 286.753 173.078 275.823 181.183 262.318L182.368 262.318C182.368 271.245 182.756 279.371 183.53 286.695C187.018 329.5 194.635 365.923 206.382 395.966C216.561 422.568 229.988 449.153 249.18 463.863C268.373 478.573 291.299 480 315.438 480C328.694 480 341.802 477.025 354.762 471.073C367.722 465.122 378.752 456.653 387.854 445.666C394.78 438.799 398.243 432.504 398.243 426.781C398.243 423.806 394.984 420.487 388.465 416.824C367.33 406.295 346.095 384.321 324.762 350.902C316.268 337.168 308.371 322.059 301.072 305.574C294.56 290.921 289.528 278.385 285.977 267.967C282.426 257.548 279.214 245.53 276.34 231.913C273.467 218.295 270.842 203.017 268.465 186.078C283.083 172.116 303.231 155.98 328.91 137.672C363.083 113.637 386.194 94.6406 398.243 80.6814C404.959 72.8989 410.293 64.2007 414.243 54.587C418.194 44.9732 420.169 35.3613 420.169 25.7511C420.169 13.1617 412.87 6.86696 398.271 6.86696C378.938 6.86696 357.532 16.0408 334.053 34.3884C320.64 44.4779 309.395 53.995 300.32 62.94C291.244 71.8849 278.421 85.6439 261.85 104.217L201.729 179.555L195.803 189.528L194.618 187.811C196.001 182.997 198.322 175.488 201.581 165.284C204.84 155.081 207.161 147.57 208.544 142.752C229.482 75.7994 239.952 36.3591 239.952 24.4314C239.952 15.7153 237.38 9.46442 232.236 5.67865C227.093 1.89292 218.387 3.62397e-05 206.118 0L206.118 0Z"
        id="s-Path_1-d1224"
        fill="#EE6055"
        fill-rule="evenodd"
        stroke="none" />
    </g>
    <g id="svg" transform="translate(17.120178 10.239944)">
      <path
        d="M155.101 0C133.518 3.05176e-05 115.875 0.890656 102.173 2.67188C88.4707 4.45316 76.7402 7.21878 66.9815 10.9688C56.6572 14.9063 46.9439 23.7188 37.8413 37.4063C28.7388 51.0938 24.1875 63.4688 24.1875 74.5313C24.1875 81.2813 27.3281 86.5782 33.6094 90.4219C39.8906 94.2657 48.0938 96.1875 58.2188 96.1875C68.7188 96.1875 90.0938 91.4063 122.344 81.8438C129.844 79.5938 134.438 78.2344 136.125 77.7657C137.813 77.2969 140.203 76.6407 143.297 75.7969C146.391 74.9532 149.719 74.0625 153.281 73.125L153.281 73.125C148.219 120.75 143.063 160.078 137.813 191.109C132.563 222.141 124.313 261.375 113.063 308.813C106.125 337.688 97.3125 369.188 86.625 403.313C82.5 415.313 77.0625 427.031 70.3125 438.469C67.3125 428.156 65.8125 416.063 65.8125 402.188C65.8125 376.688 69.0938 346.125 75.6563 310.5C77.1563 302.813 77.9063 297.469 77.9063 294.469C77.9063 288.094 77.0156 283.219 75.2344 279.844C73.4531 276.469 71.0625 274.781 68.0625 274.781C64.6875 274.781 59.6719 276.844 53.0156 280.969C46.3594 285.094 40.0313 289.969 34.0313 295.594C23.5313 306.656 15.2344 320.485 9.14063 337.078C3.04688 353.672 0 370.781 0 388.406C0 412.406 7.26929 435.469 21.8079 457.594C36.3464 479.719 51.2124 490.781 66.4058 490.781C77.0991 490.781 87.3699 488.203 97.218 483.047C107.066 477.891 116.586 470.157 125.778 459.846C134.97 449.535 143.599 436.975 151.664 422.165C188.057 355.799 220.354 272.375 248.555 171.892C255.697 147.523 262.691 119.769 269.534 88.6311C276.378 57.4929 279.8 37.9849 279.8 30.1069C279.8 19.7886 299.969 15.8452 279.8 10.9688C259.63 6.09232 197.895 3.05176e-05 155.101 0L155.101 0Z"
        id="s-Path_2-d1224"
        fill="#2e2e2e"
        fill-rule="evenodd"
        stroke="none" />
    </g>
  </g>
</svg>