<?xml version="1.0" encoding="utf-8"?>
<svg width="64px" height="64px" viewBox="0 0 64 64" version="1.1" xmlns:xlink="http://www.w3.org/1999/xlink" xmlns="http://www.w3.org/2000/svg">
  <defs>
    <filter id="filter_1">
      <feColorMatrix in="SourceGraphic" type="matrix" values="0 0 0 0 0.9882353 0 0 0 0 0.28235295 0 0 0 0 0.3137255 0 0 0 1 0" />
    </filter>
    <path d="M0 0L38.2652 0L38.2652 63.883L0 63.883L0 0Z" id="path_1" />
    <rect width="64" height="64" id="artboard_1" />
    <clipPath id="clip_1">
      <use xlink:href="#artboard_1" clip-rule="evenodd" />
    </clipPath>
    <clipPath id="mask_1">
      <use xlink:href="#path_1" />
    </clipPath>
  </defs>
  <g id="Artboard" clip-path="url(#clip_1)">
    <use xlink:href="#artboard_1" stroke="none" fill="#FFFFFF" />
    <g id="Group" transform="translate(0 0.117004395)">
      <g id="svg-2" transform="translate(8.321838 1.4033508)" filter="url(#filter_1)">
        <g id="Group">
          <g id="Group">
            <path d="M27.3135 0C25.5307 4.71716e-06 23.8134 0.350094 22.1617 1.05027C20.51 1.75044 19.2645 2.65174 18.4253 3.75414C17.7173 4.73737 16.721 7.01667 15.4363 10.592C14.1517 14.1674 12.7503 18.5249 11.2321 23.6645C9.71392 28.8041 8.22846 34.2714 6.77572 40.0665C5.32297 45.8616 3.98148 51.5748 2.75123 57.206C2.69888 57.5039 2.6727 57.921 2.6727 58.4574C2.6727 59.3214 -0.422682 61.5531 0.0488868 62.1639C0.520455 62.7747 4.21315 61.9716 5.07694 61.7408C6.01227 61.4909 8.00127 60.645 9.46812 59.8406C10.935 59.0361 11.6053 58.5765 12.8106 57.3847C14.094 56.1632 15.2335 54.5766 16.229 52.625C17.2245 50.6735 18.3116 47.8951 19.4903 44.2899C20.4858 41.4594 21.2193 39.5004 21.6909 38.4129C22.1624 37.3254 22.9352 35.9027 24.0092 34.1448L24.1663 34.1448C24.1663 35.3068 24.2176 36.3645 24.3203 37.318C24.7824 42.8896 25.7918 47.6307 27.3485 51.5412C28.6973 55.004 30.4765 58.4643 33.0198 60.3791C35.5631 62.2939 38.6011 62.4796 41.7998 62.4796C43.5564 62.4796 45.2934 62.0923 47.0108 61.3176C48.7281 60.543 50.1899 59.4406 51.396 58.0104C52.3138 57.1166 52.7727 56.2972 52.7727 55.5524C52.7727 55.165 52.3408 54.733 51.477 54.2563C48.6762 52.8857 45.8623 50.0254 43.0354 45.6754C41.9098 43.8877 40.8634 41.921 39.8961 39.7753C39.0332 37.868 38.3664 36.2363 37.8959 34.8801C37.4253 33.524 36.9997 31.9597 36.6189 30.1871C36.2381 28.4146 35.8903 26.4259 35.5753 24.2211C37.5123 22.4036 40.1822 20.3033 43.5851 17.9202C48.1134 14.7917 51.176 12.319 52.7727 10.502C53.6626 9.48894 54.3694 8.35674 54.8929 7.10536C55.4164 5.85398 55.6781 4.60283 55.6782 3.35191C55.6781 1.7132 54.7109 0.893843 52.7764 0.893843C50.2144 0.893843 47.3779 2.08796 44.2666 4.4762C42.4892 5.7895 40.9991 7.02831 39.7965 8.19263C38.5938 9.35696 36.8946 11.1479 34.6987 13.5655L26.7319 23.3719L25.9466 24.6701L25.7896 24.4466C25.9728 23.82 26.2804 22.8426 26.7123 21.5144C27.1442 20.1862 27.4517 19.2086 27.635 18.5815C30.4096 9.86649 31.7969 4.73271 31.7969 3.18013C31.7969 2.0456 31.4561 1.23194 30.7745 0.739166C30.0929 0.246394 28.9392 4.71716e-06 27.3135 0L27.3135 0Z" id="s-Path_1-d1224" fill="#333333" fill-rule="evenodd" stroke="none" />
          </g>
        </g>
      </g>
      <g id="svg">
        <path d="M0 0L38.2652 0L38.2652 63.883L0 63.883L0 0Z" id="Background" fill="none" fill-rule="evenodd" stroke="none" />
        <g clip-path="url(#mask_1)">
          <g id="Group">
            <g id="Group">
              <path d="M20.5529 0C17.6929 3.97235e-06 15.355 0.115933 13.5393 0.347787C11.7236 0.579649 10.1691 0.939639 8.87595 1.42776C7.50785 1.94029 6.2207 3.08737 5.01449 4.86902C3.80828 6.65067 3.20517 8.26147 3.20517 9.70143C3.20517 10.58 3.62135 11.2695 4.4537 11.7698C5.28605 12.2702 6.37308 12.5203 7.71478 12.5203C9.10617 12.5203 11.9387 11.898 16.2122 10.6533C17.2061 10.3604 17.8148 10.1834 18.0384 10.1224C18.262 10.0614 18.5788 9.976 18.9888 9.86617C19.3988 9.75634 19.8398 9.64041 20.3119 9.51838L20.3119 9.51838C19.641 15.7175 18.9577 20.8367 18.262 24.8759C17.5663 28.9151 16.4731 34.0221 14.9823 40.1969C14.063 43.9554 12.8952 48.0556 11.479 52.4975C10.9324 54.0595 10.2118 55.5849 9.31736 57.0737C8.91982 55.7314 8.72105 54.1572 8.72105 52.3511C8.72105 49.0319 9.15586 45.0537 10.0255 40.4165C10.2243 39.4159 10.3236 38.7203 10.3236 38.3298C10.3236 37.5 10.2056 36.8654 9.96958 36.4261C9.73354 35.9868 9.41675 35.7672 9.01921 35.7672C8.57198 35.7672 7.90734 36.0356 7.02529 36.5726C6.14325 37.1095 5.30469 37.7441 4.5096 38.4762C3.11821 39.9162 2.01876 41.7161 1.21126 43.8761C0.403752 46.036 0 48.2631 0 50.5573C0 53.6812 0.96328 56.6832 2.88984 59.5631C4.8164 62.443 6.78634 63.883 8.79967 63.883C10.2167 63.883 11.5777 63.5474 12.8827 62.8762C14.1877 62.2051 15.4493 61.1984 16.6673 59.8563C17.8854 58.5141 19.0288 56.8792 20.0976 54.9515C24.9201 46.3129 29.1998 35.4539 32.9369 22.3745C33.8834 19.2025 34.8101 15.5899 35.717 11.5367C36.6238 7.48362 37.0773 4.94433 37.0773 3.9189C37.0773 2.5758 39.75 2.06251 37.0773 1.42776C34.4046 0.793012 26.2237 3.97235e-06 20.5529 0L20.5529 0Z" id="s-Path_2-d1224" fill="#333333" fill-rule="evenodd" stroke="none" />
            </g>
          </g>
        </g>
      </g>
    </g>
  </g>
</svg>